<svg width="60" height="60" viewBox="0 0 60 60" xmlns="http://www.w3.org/2000/svg">
  <g fill="#FFFFFF" fill-rule="evenodd">
    <!-- Main paw print -->
    <path d="M15,10 C16.6569,10 18,8.65685 18,7 C18,5.34315 16.6569,4 15,4 C13.3431,4 12,5.34315 12,7 C12,8.65685 13.3431,10 15,10 Z"/>
    <path d="M25,10 C26.6569,10 28,8.65685 28,7 C28,5.34315 26.6569,4 25,4 C23.3431,4 22,5.34315 22,7 C22,8.65685 23.3431,10 25,10 Z"/>
    <path d="M35,13 C36.6569,13 38,11.6569 38,10 C38,8.34315 36.6569,7 35,7 C33.3431,7 32,8.34315 32,10 C32,11.6569 33.3431,13 35,13 Z"/>
    <path d="M15,21 C16.6569,21 18,19.6569 18,18 C18,16.3431 16.6569,15 15,15 C13.3431,15 12,16.3431 12,18 C12,19.6569 13.3431,21 15,21 Z"/>
    <path d="M25,24 C29.9706,24 34,19.9706 34,15 C34,10.0294 29.9706,6 25,6 C20.0294,6 16,10.0294 16,15 C16,19.9706 20.0294,24 25,24 Z"/>
    
    <!-- Offset paw prints -->
    <path d="M45,30 C46.6569,30 48,28.6569 48,27 C48,25.3431 46.6569,24 45,24 C43.3431,24 42,25.3431 42,27 C42,28.6569 43.3431,30 45,30 Z"/>
    <path d="M55,30 C56.6569,30 58,28.6569 58,27 C58,25.3431 56.6569,24 55,24 C53.3431,24 52,25.3431 52,27 C52,28.6569 53.3431,30 55,30 Z"/>
    <path d="M45,41 C46.6569,41 48,39.6569 48,38 C48,36.3431 46.6569,35 45,35 C43.3431,35 42,36.3431 42,38 C42,39.6569 43.3431,41 45,41 Z"/>
    <path d="M55,44 C59.9706,44 64,39.9706 64,35 C64,30.0294 59.9706,26 55,26 C50.0294,26 46,30.0294 46,35 C46,39.9706 50.0294,44 55,44 Z"/>
    <path d="M45,53 C46.6569,53 48,51.6569 48,50 C48,48.3431 46.6569,47 45,47 C43.3431,47 42,48.3431 42,50 C42,51.6569 43.3431,53 45,53 Z"/>
    
    <!-- Small isolated paws -->
    <path d="M5,40 C6.65685,40 8,38.6569 8,37 C8,35.3431 6.65685,34 5,34 C3.34315,34 2,35.3431 2,37 C2,38.6569 3.34315,40 5,40 Z"/>
    <path d="M12,45 C13.6569,45 15,43.6569 15,42 C15,40.3431 13.6569,39 12,39 C10.3431,39 9,40.3431 9,42 C9,43.6569 10.3431,45 12,45 Z"/>
    <path d="M5,51 C6.65685,51 8,49.6569 8,48 C8,46.3431 6.65685,45 5,45 C3.34315,45 2,46.3431 2,48 C2,49.6569 3.34315,51 5,51 Z"/>
    <path d="M12,57 C16.9706,57 21,52.9706 21,48 C21,43.0294 16.9706,39 12,39 C7.02944,39 3,43.0294 3,48 C3,52.9706 7.02944,57 12,57 Z"/>
  </g>
</svg> 